<?xml version="1.0" standalone="no"?>
<!DOCTYPE svg PUBLIC "-//W3C//DTD SVG 20010904//EN"
 "http://www.w3.org/TR/2001/REC-SVG-20010904/DTD/svg10.dtd">
<svg version="1.0" xmlns="http://www.w3.org/2000/svg"
 width="3193.000000pt" height="1916.000000pt" viewBox="0 0 3193.000000 1916.000000"
 preserveAspectRatio="xMidYMid meet">

<g transform="translate(0.000000,1916.000000) scale(0.100000,-0.100000)"
fill="#67bde4" stroke="none">
<path d="M15675 18964 c-16 -2 -70 -9 -120 -15 -426 -52 -875 -235 -1229 -500
-628 -472 -1018 -1199 -1053 -1965 l-6 -132 -116 -7 c-574 -34 -1091 -230
-1525 -579 -663 -533 -1037 -1379 -977 -2211 40 -565 231 -1056 580 -1493 339
-425 851 -757 1377 -892 187 -49 480 -89 647 -90 15 0 17 -10 17 -78 0 -98 24
-304 51 -436 138 -683 540 -1277 1129 -1671 129 -86 403 -225 555 -281 128
-47 368 -107 515 -129 150 -22 463 -31 611 -16 228 22 475 76 665 146 148 54
424 194 550 277 703 470 1141 1232 1181 2055 l6 131 96 6 c394 24 726 109
1056 271 757 372 1289 1084 1435 1920 112 648 -34 1340 -398 1885 -114 171
-201 278 -327 405 -470 474 -1066 740 -1747 780 l-118 7 0 77 c0 157 -42 433
-96 623 -258 920 -1017 1644 -1945 1854 -202 45 -295 55 -544 59 -132 2 -253
1 -270 -1z m551 -259 c582 -83 1104 -369 1482 -810 335 -391 527 -851 572
-1370 5 -66 10 -132 10 -147 l0 -28 -144 0 -143 0 -7 91 c-31 407 -195 819
-453 1139 -83 102 -270 282 -373 359 -286 212 -623 346 -980 391 -123 15 -381
12 -514 -5 -218 -29 -411 -88 -621 -190 -632 -308 -1057 -908 -1145 -1615 -6
-55 -10 -540 -10 -1387 l0 -1303 -195 0 -196 0 4 1373 c4 1466 2 1399 53 1637
58 276 177 559 332 795 110 168 186 261 326 400 395 392 905 630 1467 685 122
11 407 4 535 -15z m38 -634 c388 -68 776 -287 1037 -586 240 -275 415 -668
444 -1000 3 -38 8 -85 11 -102 l5 -33 -219 0 -219 0 -6 138 c-6 156 -24 253
-72 399 -156 468 -565 820 -1059 910 -121 22 -351 22 -472 0 -555 -101 -976
-509 -1107 -1072 -21 -89 -21 -110 -24 -1492 l-4 -1403 -219 0 -220 0 0 1265
c0 1298 2 1363 41 1557 127 632 604 1162 1226 1362 104 33 279 70 383 80 101
9 358 -3 474 -23z m-51 -530 c334 -89 601 -305 747 -605 74 -152 100 -260 107
-438 l6 -148 -222 0 -221 0 0 158 c0 189 -14 263 -71 380 -34 70 -58 103 -128
173 -71 70 -102 94 -171 127 -200 95 -403 96 -594 3 -180 -88 -307 -243 -356
-437 -19 -75 -20 -117 -20 -1501 l0 -1423 -235 0 -236 0 4 1378 c3 1243 5
1384 20 1452 65 289 216 524 447 697 119 89 304 169 460 198 110 21 360 14
463 -14z m-128 -546 c145 -41 270 -184 295 -340 5 -33 10 -115 10 -182 l0
-123 -280 0 -280 0 0 -1260 0 -1260 -150 0 -150 0 0 1395 c0 995 3 1409 11
1447 27 128 120 246 236 300 103 49 192 55 308 23z m-2815 -1083 l0 -188 -142
-11 c-185 -15 -331 -44 -498 -99 -699 -229 -1229 -821 -1375 -1536 -91 -447
-35 -892 165 -1303 319 -656 954 -1091 1685 -1154 75 -7 610 -11 1423 -11
l1302 0 0 -140 0 -141 -1407 3 c-1397 4 -1409 4 -1528 25 -258 47 -451 110
-670 218 -253 125 -443 262 -646 466 -602 606 -832 1491 -602 2319 128 462
416 899 796 1209 394 321 926 521 1405 529 l92 2 0 -188z m5505 178 c819 -91
1532 -590 1890 -1325 112 -228 183 -451 221 -695 26 -163 26 -549 1 -705 -71
-430 -232 -799 -497 -1137 -83 -106 -272 -295 -378 -378 -400 -313 -871 -493
-1354 -517 l-128 -6 0 141 0 141 33 5 c17 3 68 8 112 11 262 20 586 125 826
268 161 96 261 171 387 292 195 186 317 354 432 590 282 578 278 1233 -13
1810 -316 630 -933 1051 -1646 1124 -67 7 -542 11 -1347 11 l-1244 0 0 190 0
190 1308 0 c803 0 1342 -4 1397 -10z m-5505 -834 l0 -213 -132 -7 c-290 -15
-514 -87 -735 -235 -314 -211 -530 -554 -589 -936 -22 -142 -14 -364 19 -505
110 -469 453 -843 910 -995 205 -68 140 -65 1689 -65 l1398 0 0 -220 0 -221
-1387 3 c-1546 4 -1442 -1 -1689 74 -212 64 -394 156 -570 288 -101 76 -257
227 -337 327 -170 211 -302 497 -359 781 -20 98 -23 143 -23 338 1 206 3 236
27 351 132 615 553 1109 1138 1335 169 65 396 111 553 113 l87 1 0 -214z
m5544 186 c662 -141 1183 -605 1384 -1232 64 -202 86 -365 79 -599 -7 -274
-54 -471 -168 -711 -282 -591 -845 -979 -1501 -1036 l-78 -7 0 222 0 221 118
0 c572 0 1098 381 1282 930 43 127 61 232 66 385 10 247 -29 433 -136 652
-189 387 -530 650 -970 746 -93 20 -120 21 -1457 24 l-1363 4 0 215 0 214
1318 -2 1317 -3 109 -23z m-5544 -862 l0 -210 -145 0 c-172 0 -270 -17 -370
-64 -186 -88 -320 -249 -370 -446 -22 -85 -23 -236 -1 -320 60 -239 248 -430
482 -490 75 -19 117 -20 1521 -20 l1443 0 0 -245 0 -245 -1367 0 c-853 0
-1394 4 -1438 10 -176 25 -367 100 -502 196 -391 279 -566 767 -437 1222 30
109 118 287 183 373 213 280 541 445 894 448 l107 1 0 -210z m5631 178 c134
-37 230 -79 335 -146 553 -358 686 -1099 292 -1623 -212 -281 -550 -448 -910
-449 l-88 0 0 245 0 245 168 0 c197 0 280 16 395 77 108 57 222 174 275 283
55 111 72 184 73 300 2 274 -142 502 -386 616 -144 67 -77 64 -1605 64 l-1380
0 0 210 0 210 1368 -2 1367 -3 96 -27z m-5631 -908 l0 -270 1280 0 1280 0 0
-155 0 -155 -1418 0 c-1548 0 -1474 -3 -1584 57 -26 14 -71 50 -99 80 -218
231 -120 602 186 699 25 8 100 13 198 13 l157 1 0 -270z m5680 234 c276 -132
335 -485 115 -693 -100 -95 -185 -121 -392 -121 l-143 0 0 280 0 280 -1230 0
-1230 0 0 145 0 145 1408 -2 1407 -3 65 -31z m-2560 -1876 c0 -1494 1 -1453
-56 -1558 -36 -67 -130 -155 -201 -188 -53 -24 -69 -27 -173 -27 -111 0 -118
1 -183 33 -79 39 -157 113 -192 182 -42 83 -55 153 -55 297 l0 133 270 0 270
0 0 1250 0 1250 160 0 160 0 0 -1372z m677 -20 c-2 -1391 -2 -1393 -24 -1473
-122 -454 -485 -779 -943 -846 -181 -26 -411 5 -591 80 -225 93 -441 295 -556
516 -82 160 -117 293 -129 498 l-7 117 237 0 236 0 0 -158 c0 -264 46 -390
199 -542 94 -93 161 -134 281 -172 106 -33 273 -33 380 0 211 66 374 225 452
442 l23 65 3 1433 2 1432 220 0 220 0 -3 -1392z m693 125 c0 -1304 -2 -1398
-41 -1588 -47 -230 -162 -496 -296 -685 -136 -190 -355 -393 -558 -515 -553
-334 -1274 -334 -1829 -1 -524 315 -847 844 -892 1459 l-7 97 220 0 220 0 6
-137 c3 -76 13 -175 21 -220 62 -312 239 -606 483 -802 639 -515 1572 -363
2018 327 83 129 142 272 187 457 l22 90 3 1393 4 1392 219 0 220 0 0 -1267z
m527 -85 c-4 -1407 -3 -1391 -47 -1609 -185 -912 -904 -1652 -1803 -1853 -202
-46 -318 -58 -532 -59 -223 0 -361 15 -560 63 -834 200 -1500 836 -1740 1665
-48 168 -76 333 -91 548 l-6 97 196 0 196 0 0 -73 c0 -374 170 -843 429 -1182
64 -84 242 -266 331 -338 828 -669 2016 -598 2755 164 323 333 525 761 574
1211 7 63 11 556 11 1408 l0 1310 145 0 146 0 -4 -1352z"/>
<path d="M7632 6759 c-302 -51 -510 -265 -584 -604 -10 -48 -13 -300 -13
-1230 l0 -1170 26 -96 c65 -233 188 -391 374 -480 120 -58 189 -73 335 -73
221 0 365 58 510 203 88 89 133 160 171 268 45 130 51 178 56 491 l5 302 -191
0 -191 0 0 -274 c0 -246 -2 -280 -20 -339 -52 -170 -191 -267 -362 -255 -84 6
-181 51 -229 105 -49 56 -87 148 -99 238 -7 53 -10 436 -8 1145 l3 1065 23 65
c59 171 187 258 361 248 159 -10 273 -108 317 -273 10 -35 14 -120 14 -277 l0
-228 190 0 190 0 0 198 c0 313 -19 427 -96 587 -103 215 -282 346 -524 385
-76 12 -183 11 -258 -1z"/>
<path d="M9585 6756 c-324 -63 -547 -310 -594 -659 -7 -52 -11 -449 -11 -1165
0 -1155 1 -1185 48 -1322 29 -83 86 -189 136 -251 184 -231 544 -320 849 -209
216 79 366 246 444 495 l28 90 0 1200 0 1200 -28 90 c-46 148 -99 238 -197
335 -138 139 -277 196 -495 205 -70 3 -135 0 -180 -9z m316 -420 c100 -47 176
-152 199 -276 14 -72 14 -2178 0 -2250 -39 -203 -189 -321 -391 -307 -183 12
-308 133 -338 327 -7 42 -11 436 -11 1105 0 669 4 1063 11 1105 11 74 53 169
93 218 32 37 98 78 159 98 69 23 210 13 278 -20z"/>
<path d="M19638 6760 c-314 -57 -518 -254 -601 -577 l-22 -88 0 -1160 0 -1160
23 -89 c28 -111 85 -232 146 -313 180 -238 535 -334 846 -228 248 84 418 292
477 580 17 84 18 166 18 1215 0 1044 -1 1131 -18 1208 -40 186 -111 318 -235
434 -78 73 -189 134 -297 162 -71 19 -270 29 -337 16z m284 -417 c101 -46 182
-151 207 -271 16 -75 16 -2200 0 -2274 -42 -194 -193 -309 -390 -295 -96 6
-167 37 -227 97 -50 50 -72 90 -99 175 -17 57 -18 120 -18 1155 0 1166 -1
1148 48 1245 45 90 105 143 200 177 71 25 212 21 279 -9z"/>
<path d="M90 6520 l0 -200 280 0 280 0 0 -1585 0 -1585 190 0 190 0 0 1585 0
1585 280 0 280 0 0 200 0 200 -750 0 -750 0 0 -200z"/>
<path d="M2150 4935 l0 -1785 190 0 190 0 0 805 0 805 370 0 370 0 0 -805 0
-805 190 0 190 0 0 1785 0 1785 -190 0 -190 0 0 -780 0 -780 -370 0 -370 0 0
780 0 780 -190 0 -190 0 0 -1785z"/>
<path d="M4340 4935 l0 -1785 665 0 665 0 0 200 0 200 -475 0 -475 0 0 605 0
605 375 0 375 0 0 200 0 200 -375 0 -375 0 0 580 0 580 475 0 475 0 0 200 0
200 -665 0 -665 0 0 -1785z"/>
<path d="M11140 4935 l0 -1785 650 0 650 0 0 200 0 200 -460 0 -460 0 0 1585
0 1585 -190 0 -190 0 0 -1785z"/>
<path d="M12960 4935 l0 -1785 650 0 650 0 0 200 0 200 -455 0 -455 0 0 1585
0 1585 -195 0 -195 0 0 -1785z"/>
<path d="M15166 6693 c-3 -16 -152 -809 -331 -1763 -179 -954 -327 -1745 -330
-1757 l-5 -23 235 0 235 0 5 23 c3 12 32 184 65 382 33 198 63 372 66 388 l6
27 408 0 408 0 5 -22 c3 -13 33 -187 66 -388 34 -201 64 -375 66 -387 l5 -23
240 0 c132 0 240 2 240 4 0 6 -659 3519 -665 3544 l-5 22 -354 0 -354 0 -6
-27z m545 -1373 c81 -481 149 -890 152 -907 l6 -33 -350 0 -349 0 5 23 c3 12
70 416 150 897 80 481 147 881 150 888 3 9 19 12 47 10 l43 -3 146 -875z"/>
<path d="M16930 4935 l0 -1785 393 0 c215 0 434 5 485 10 256 27 449 157 557
374 77 156 87 217 92 541 6 385 -16 505 -123 666 -58 88 -128 149 -231 202
-46 23 -83 45 -83 50 0 4 32 27 70 52 165 106 254 229 301 417 26 107 37 406
20 555 -47 403 -270 647 -631 692 -47 6 -257 11 -467 11 l-383 0 0 -1785z
m835 1370 c123 -32 213 -121 252 -250 15 -51 18 -95 18 -285 -1 -301 -23 -383
-127 -482 -85 -81 -127 -91 -375 -96 l-213 -4 0 566 0 566 193 0 c141 0 209
-4 252 -15z m66 -1543 c114 -45 178 -112 220 -233 21 -59 23 -85 27 -334 2
-170 0 -293 -7 -330 -25 -136 -106 -242 -220 -287 -51 -20 -77 -22 -293 -26
l-238 -4 0 622 0 622 228 -4 c205 -4 232 -6 283 -26z"/>
<path d="M21130 4936 l0 -1786 190 0 190 0 0 765 0 765 215 0 214 0 67 -62
c133 -125 231 -288 275 -458 21 -81 23 -108 26 -582 l4 -498 190 0 190 0 -3
578 c-4 554 -5 580 -25 654 -51 181 -130 322 -252 451 l-70 74 40 39 c93 90
168 234 201 389 25 115 36 539 19 721 -35 380 -214 619 -530 706 -71 20 -107
22 -508 26 l-433 4 0 -1786z m864 1358 c61 -23 150 -103 178 -158 43 -84 48
-126 48 -436 0 -333 -6 -378 -66 -468 -40 -61 -95 -103 -170 -132 -49 -18 -78
-20 -264 -20 l-210 0 0 621 0 621 218 -4 c185 -4 224 -7 266 -24z"/>
<path d="M23645 6708 c-5 -17 -665 -3535 -665 -3548 0 -6 87 -10 233 -10 l234
0 31 183 c17 100 48 284 69 410 l38 227 411 0 411 0 68 -410 68 -410 242 0
241 0 -332 1773 c-184 974 -334 1778 -334 1785 0 9 -78 12 -355 12 -276 0
-357 -3 -360 -12z m400 -530 c7 -31 295 -1778 295 -1789 0 -5 -154 -9 -345 -9
-228 0 -345 3 -345 10 0 11 287 1737 296 1783 5 24 10 27 50 27 37 0 44 -3 49
-22z"/>
<path d="M25280 6520 l0 -200 280 0 280 0 0 -1585 0 -1585 190 0 190 0 0 1585
0 1585 280 0 280 0 0 200 0 200 -750 0 -750 0 0 -200z"/>
<path d="M27270 4935 l0 -1785 190 0 190 0 0 1785 0 1785 -190 0 -190 0 0
-1785z"/>
<path d="M28194 6679 c4 -22 123 -811 266 -1752 143 -942 263 -1727 266 -1745
l6 -32 286 2 286 3 271 1780 270 1780 -184 3 c-102 1 -188 -1 -191 -5 -4 -5
-105 -748 -226 -1652 -121 -911 -221 -1635 -225 -1625 -4 11 -103 737 -219
1614 -116 877 -214 1612 -217 1633 l-6 37 -195 0 -195 0 7 -41z"/>
<path d="M30300 4935 l0 -1785 765 0 765 0 0 200 0 200 -575 0 -575 0 0 605 0
605 460 0 460 0 0 200 0 200 -460 0 -460 0 0 580 0 580 575 0 575 0 0 200 0
200 -765 0 -765 0 0 -1785z"/>
<path d="M11631 1008 c-151 -486 -277 -889 -279 -895 -3 -10 30 -13 146 -13
l151 0 19 63 c10 34 36 124 58 199 l39 138 291 0 290 0 61 -197 61 -198 155
-3 156 -3 -23 73 c-13 40 -142 443 -286 896 l-264 822 -151 0 -150 0 -274
-882z m523 126 c53 -177 96 -324 96 -328 0 -3 -88 -6 -195 -6 -127 0 -195 4
-195 10 0 13 180 632 187 643 3 5 7 7 8 5 2 -2 47 -148 99 -324z"/>
<path d="M15240 995 l0 -895 135 0 135 0 0 203 0 203 61 79 c33 44 64 83 68
88 4 4 65 -123 136 -283 l130 -290 142 0 c79 0 143 3 143 8 0 4 -83 188 -186
409 l-185 402 59 78 c32 43 111 149 175 236 l117 157 -168 0 -167 -1 -150
-215 c-82 -118 -156 -220 -162 -226 -10 -8 -13 86 -13 466 l0 476 -135 0 -135
0 0 -895z"/>
<path d="M16450 995 l0 -895 135 0 135 0 0 895 0 895 -135 0 -135 0 0 -895z"/>
<path d="M20150 1570 c0 -176 -1 -320 -3 -320 -1 0 -32 29 -68 64 -47 45 -81
69 -122 85 -195 72 -411 -46 -480 -263 -21 -67 -22 -88 -22 -376 0 -328 4
-367 53 -468 34 -69 114 -152 183 -188 48 -25 64 -29 144 -29 84 0 94 2 154
35 57 30 88 59 160 150 l20 25 1 -92 0 -93 125 0 125 0 0 895 0 895 -135 0
-135 0 0 -320z m-150 -430 c77 -39 122 -129 141 -282 36 -298 -60 -521 -226
-521 -65 0 -107 23 -152 81 -51 67 -54 93 -45 366 l8 245 30 43 c58 83 159
111 244 68z"/>
<path d="M17382 1405 c-106 -30 -162 -68 -212 -147 -34 -52 -80 -163 -80 -193
0 -9 197 -60 232 -60 4 0 20 25 35 55 39 78 77 100 167 100 125 0 176 -47 176
-163 l0 -58 -42 -18 c-24 -10 -104 -34 -178 -54 -260 -68 -317 -102 -377 -224
-37 -76 -38 -79 -38 -192 0 -97 4 -125 23 -172 29 -73 91 -143 156 -177 45
-24 62 -27 151 -27 88 0 107 3 158 27 31 15 81 50 110 77 30 28 56 51 59 51 3
0 9 -12 12 -27 4 -16 12 -45 17 -65 l10 -38 135 0 c125 0 134 1 125 18 -5 9
-17 44 -26 77 -15 51 -19 127 -25 500 -8 476 -11 507 -64 584 -33 48 -85 85
-157 113 -72 28 -287 35 -367 13z m308 -936 c-27 -98 -153 -182 -239 -159 -41
11 -94 61 -110 103 -27 70 -3 160 51 200 14 11 88 38 165 61 l138 42 3 -103
c1 -57 -2 -122 -8 -144z"/>
<path d="M18771 1404 c-25 -9 -61 -26 -81 -39 -38 -24 -140 -130 -140 -146 0
-5 -4 -9 -10 -9 -6 0 -10 37 -10 90 l0 90 -125 0 -125 0 0 -645 0 -645 135 0
135 0 0 308 c1 331 11 523 31 591 16 55 89 136 135 151 20 7 59 10 86 8 39 -4
56 -12 84 -39 64 -62 66 -82 72 -576 l4 -443 135 0 135 0 -4 497 c-5 553 -8
586 -72 681 -81 120 -247 174 -385 126z"/>
<path d="M12840 918 c0 -287 4 -509 11 -548 29 -184 137 -288 309 -298 56 -3
92 0 129 13 73 24 161 86 201 142 l35 48 3 -93 3 -92 124 0 125 0 0 655 0 655
-134 0 -134 0 -5 -442 c-3 -312 -8 -455 -17 -485 -7 -23 -28 -60 -47 -83 -89
-103 -222 -108 -295 -10 -32 44 -38 134 -38 583 l0 437 -135 0 -135 0 0 -482z"/>
<path d="M14370 1382 c-176 -46 -314 -195 -382 -412 -30 -98 -33 -308 -5 -410
43 -157 161 -321 274 -382 133 -72 285 -77 414 -15 126 61 231 183 282 329 47
132 56 118 -81 118 l-120 0 -30 -53 c-125 -222 -391 -205 -500 32 -23 49 -26
69 -27 166 0 101 2 115 29 172 34 74 113 154 171 173 51 17 119 17 170 0 53
-18 136 -98 165 -160 l23 -50 120 0 119 0 -7 33 c-27 122 -91 244 -175 327
-75 75 -141 113 -231 135 -81 19 -128 18 -209 -3z"/>
</g>
</svg>
